<svg id="Livello_1" data-name="Livello 1" xmlns="http://www.w3.org/2000/svg" viewBox="0 0 507.44 490.31"><defs><style>.cls-1{fill:#0273c1;}.cls-2{fill:#f99409;}.cls-3{fill:#0173c0;}.cls-4{fill:#7d5622;}.cls-5{fill:#f8ad2d;}.cls-6{fill:#1297ba;}.cls-7{fill:#0754c6;}.cls-8{fill:#0e7bc2;}.cls-9{fill:#7d521a;}.cls-10{fill:#0595b5;}.cls-11{fill:#d49e5a;}.cls-12{fill:#dce1df;}.cls-13{fill:#c9c5b6;}</style></defs><path class="cls-1" d="M241.52,457.74c-.63-.86-1.26-1.73-1.88-2.6.3-.71.59-1.43.88-2.15a11.73,11.73,0,0,0-2.62-7c-12.53-17-18.34-36.17-19.32-57-1.18-25.26,5.06-49.13,13.49-72.65,4.24-11.84,9.37-23.2,21.22-30.11a5.88,5.88,0,0,0,3-5.65l3-.27c3.79,1.23,7.1-.05,10.25-1.92a233.29,233.29,0,0,1,68.58-27.56c7.1-1.6,8.44-4.81,7-10.68l.37.39-.44-.3,4.09.41a412.42,412.42,0,0,1,0,46.38c-1.63,3.74.3,6.5,2.71,9.12,2.66,3.66,1.75,7.72,1.42,11.72-20.25,15.13-21,35.87-17.52,58.33,6.76-5.43,12-12.15,18.42-17.48,7.32-6.06,13.86-15.61,24.21-14.95,11.38.72,15.67-7.35,23.22-11.48-7.73-.87-15.11,3.6-22.31-1,7.8-.57,15.26-2.71,22.8-4.54,2.39-.58,5.42-1.09,7,1.75,1.29,2.33-.48,4.1-1.6,6-5.33,9.24-10.4,18.62-15.92,27.75-1.58,2.62-2.87,4.87-1.63,7.84-.09.21-.17.43-.25.65a9.4,9.4,0,0,1,.95.22l7.3,2.72-.63,4.51c-11.49,5-21,12.16-27.14,23-10.12,3.11-15.92,10.82-21.47,18.79L346.6,412v-.12c-2.9,6.71-6.23,13.27-7.36,20.57-4.5,6.26-10.86,11.89-7.63,20.79-1,0-2.17-.29-2.93.13C308.4,464.46,286,467,263.39,468.58c-3.64.27-7.3.64-8.85,4.66l-2.14,1.35a3.08,3.08,0,0,0-1.86-.41l-4.39-5.51c.4-2.27.52-4.45-2-5.76A7.19,7.19,0,0,0,241.52,457.74Z" transform="translate(-40.24 -76.51)"/><path class="cls-2" d="M439.69,225.15c-30.82-2.27-60.42,3.08-89.23,13.3-2.65-1.69-4.43-1-5.45,1.84l.44.3-.37-.39L273.33,267c-4.22-.91-6.53,2.6-9.39,4.27-13.05,7.61-26.68,14.41-38.21,24.24a224.61,224.61,0,0,0-47.55,36.67c-12.15,12.15-25,24.45-29.12,42,.35,12,2.44,23.16,14.52,29.83-8.31,1.51-16-.47-23.16-4.32-5.13-2.76-7.44-2.81-9.77,3.54a60.17,60.17,0,0,1-12.82,21.07l-.1-.06c-.21-1.59-.8-2.82-2.74-2.88l-.12-.11c-1.1-3.2-3.46-2.18-5.7-1.58l-.49-.29c.23-1.21-.31-1.8-1.57-1.8l-.25-.24c0-1.21-.61-1.71-1.86-1.45l-.35-.35c.26-1.2-.25-1.79-1.51-1.79l-.24-.24c0-1.21-.62-1.71-1.86-1.45l-.36-.35c.27-1.2-.25-1.78-1.51-1.79l-.24-.24c0-1.21-.62-1.71-1.86-1.45l-.36-.35c.27-1.2-.25-1.78-1.51-1.79l-.19-.18c-.11-2.32-1.36-3.55-3.77-3.68L91,402c0-1.24-.55-1.74-1.82-1.42l-.37-.37c.2-1.21-.36-1.81-1.6-1.84a3.58,3.58,0,0,1-1.49-.91c2.76-16.21,4.87-17.25,18.37-9.16a2.93,2.93,0,0,0,1,.19l.25.27c.37,3.95,3.8,5.8,6.25,8.27,1.62,1.64,3.68,3,6.08,1.22,2.57-1.94,1.08-3.77-.26-5.74-2.42-3.57-4.63-7.28-7.21-11.4,12.61.17,12.53.18,11.27-12.11-.49-4.78.63-9.37,1.74-14.09,2.2-9.33,9.06-16.92,10.06-26.59a1.14,1.14,0,0,1,.66-.89l5.07-.89,2.09-1.57.07-.15c1.84-.63,2.11-2,1.88-3.64l.19-.19,1.87-1.76.12-.11,1.88-1.8.1-.1,1.91-1.81-.07-.22c8.43-7,16.33-14.72,25.38-20.86,23.57-16,44.47-35.7,71.17-47.32,17.68-7.7,35.16-15.86,52.89-23.46,15.62-6.68,31.42-13,47.21-19.27,29.33-11.7,59.77-13.67,90.89-9.32l10.37,3.73,0,0,2,1.86,0,0c2.69,5.38,5.92,5.62,7.86-.06,1.2-3.52,2.8-4.37,6.06-3.85h0c.47,3.31,2.4,5.8,4.86,8,2.18,1.91,5,4.46,7.62,2.5,3.48-2.62-.46-4.75-1.84-7s-2.34-4.47-3.5-6.71l9.73,1.94c5.55,8.3,13.81,12.89,23.28,15.83-.74,7.48-2.35,12.8-12.85,11.16-5.92-.92-12.13,3.29-18.76,3.69-4.45.27-2.48,5-2.5,7.94-.09,10,1,20.19-7.86,27.84C456.83,248,449.29,236,439.69,225.15Z" transform="translate(-40.24 -76.51)"/><path class="cls-2" d="M370.15,391.29c6.15-10.85,15.65-18,27.14-23-14.38,22.41-10.3,44.56,1,66.6.72,1.41,1.76,2.67,2.48,4.08,5.35,10.36,5.07,9.48-6.95,12.8-18.7,5.16-34.28,15-45.54,31.07-5.91,8.45,3.3,13.09,3.32,19.83,0,1.75,1.32,3.5,2,5.26-6.21-1.32-4-8.89-9.5-11.63-2.11,6.44-4.72,12.54-6,18.89-.72,3.69-3.32,8.91,3.1,11.19.5,2.77,0,5.17-2.78,6.66-1.09-2-.49-5.23-4.56-5-3.06.17-4.91,1.35-5.88,4.05-4.64,12.94-16,19.46-26.94,26.49-4.77,3.05-9,3.47-14.6,1.92-12.3-3.38-21.57-11.37-32-17.63-7-12.49-6.78-12.79,8.4-12.77,8.5,0,17.11.8,25-3.24,8.47,2,6.89-5.19,9.87-9-1.72-.5-2.68-1.12-3.48-1-18.26,3.53-36.4,5.38-54.3-1.92-2.23-.91-5.2-.13-7.82-.14,1.05-6.8,9.47-11.44,6.19-19.52h0l1.92-1.95.05,0c1.21,0,2.08-.4,2.07-1.76l0,0c4,0,5.26-2.45,5.66-5.73,7.56,0,15.22-.83,22.65.1,24.67,3.08,44.7-5.55,62.28-21.36,3.21-2.88,8.62-3.88,8.36-9.56h0c2.84.19,4.18-1.06,4-3.82h0c7.23-2,1.41-4.91.53-7.47l-1.05-5c-.34-13.38,3-24.3,19-27,2.67-.45,2.61-2.33,1.45-4.29C370.22,402.93,369.73,397,370.15,391.29Zm-.1,29.34c-3.3,5-13.54,1.9-12.6,11,.43,4.19.74,10.2,6.74,9.44,4.78-.6,12.8-.41,12.69-7.55C376.82,429.4,375.74,423.63,370.05,420.63Z" transform="translate(-40.24 -76.51)"/><path class="cls-3" d="M231,208.55c.17-1.33.33-2.66.5-4,8.37-5.74,9.39-15.65,12.2-23.63,10-28.52,25.93-53.86,42.05-79.22,3.65-5.75,5.89-4.32,8.89.55,13.27,21.56,28.21,42.18,38.86,65.2,1.26,2.72,1.9,6.41,6.36,6.28,2.34,1.68,1.81,3.9,1.25,6.12-2.3,2.32-.74,3.12,1.54,3.64,3.14,1.57,2.89,4.53,3.21,7.26l-.18,3.88L238.6,239.14c-2.22-.14-4.51-.49-6,1.71L230.79,242l.36-11c2.11-2.39,2.1-4.79,0-7.17,0-1.43,0-2.86,0-4.29A9.48,9.48,0,0,0,231,208.55Z" transform="translate(-40.24 -76.51)"/><path class="cls-4" d="M439.69,225.15c9.6,10.88,17.14,22.89,21.37,36.68-7.41,18.44-22.73,30.76-37.29,43.36-4.11,3.56-11.58,4.78-17.51,4.8-10.34.05-19.51,5.57-29.87,4.77-2.31-.17-5,3-6.9-.51a9,9,0,0,1,.07-8.32c1.59-3.28,4.59-5.28,7.48-7.43,21.15-15.69,42-31.71,56.76-53.64C437.66,239.1,443.93,233.42,439.69,225.15Z" transform="translate(-40.24 -76.51)"/><path class="cls-5" d="M238.6,239.14l107.12-44.49c2.88.08,4.52-1.93,6.41-3.53l15-3.86,54,.41.75.22.77-.14v0c3.29,5.45,9.4,3.86,14.28,5.33l0,0c-.12.64-.24,1.27-.35,1.91-31.12-4.35-61.56-2.38-90.89,9.32-15.79,6.3-31.59,12.59-47.21,19.27-17.73,7.6-35.21,15.76-52.89,23.46-26.7,11.62-47.6,31.34-71.17,47.32-9,6.14-16.95,13.86-25.37,20.86-.88-6.11,6.28-9.13,6.18-14.95l.05-.06c3.78-.15,5.72-2.08,5.9-5.7l0,0c2.81.09,3.83-1.72,4.44-3.94,16.15-16.91,35-30.5,55.5-42.08,3.41-1.93,6.91-3.62,9.67-6.4l1.78-1.17C234.9,241.31,237,241.12,238.6,239.14Z" transform="translate(-40.24 -76.51)"/><path class="cls-6" d="M339.9,173.75c-4.46.13-5.1-3.56-6.36-6.28-10.65-23-25.59-43.64-38.86-65.2-3-4.87-5.24-6.3-8.89-.55-16.12,25.36-32,50.7-42.05,79.22-2.81,8-3.83,17.89-12.2,23.63,12.72-44.45,34.27-85,58.51-124.44,1-1.64,1.38-3.54,3.93-3.62,3.16-.09,3.33,2.25,4.35,4.26C313.73,111.12,330.53,140.89,339.9,173.75Z" transform="translate(-40.24 -76.51)"/><path class="cls-7" d="M256.27,280.63a5.88,5.88,0,0,1-3,5.65c-11.85,6.91-17,18.27-21.22,30.11-8.43,23.52-14.67,47.39-13.49,72.65,1,20.81,6.79,39.94,19.32,57a11.73,11.73,0,0,1,2.62,7l-2.09.67a193.93,193.93,0,0,0-23.07-29.88l0,.14-1.7-2.24c0-5.47-6.11-8.28-6.49-13.62-1.85-13.77,1.24-27.44.91-41.18l21-68.59C238.79,293.28,245.35,283.83,256.27,280.63Z" transform="translate(-40.24 -76.51)"/><path class="cls-8" d="M503,211.2c-9.47-2.94-17.73-7.53-23.28-15.83,9.63-5.29,19.31-10.51,28.85-16,1.85-1,5.83-4.15,3.35-4.82-10.28-2.8,4.24-4.28-.55-6.35-4.29-.33-8.8,3-13.8,1.53,7.23-5.92,16.25-7.86,25.1-9.11,6.49-.92,11.91-5.61,18.87-4.32,2,.37,4.63-2,5.91,1.13.88,2.17-1.33,3.15-2.36,4.68-10.29,15.29-19.91,31-35.89,41.85C506.68,205.74,505.07,208.77,503,211.2Z" transform="translate(-40.24 -76.51)"/><path class="cls-7" d="M379.26,321.35c7.2,4.59,14.58.12,22.31,1-7.55,4.13-11.84,12.2-23.22,11.48-10.35-.66-16.89,8.89-24.21,14.95-6.45,5.33-11.66,12.05-18.42,17.48-3.45-22.46-2.73-43.2,17.52-58.33,2.37,8-3.14,13.91-5.81,20.57a69.34,69.34,0,0,0-4.36,13.76C354.62,334.16,362.71,320.7,379.26,321.35Z" transform="translate(-40.24 -76.51)"/><path class="cls-8" d="M41.84,443.39l2-1.7c3,.19,4.8-1.62,6.77-3.37C63.91,426.57,77.4,415,92.19,405l2.82.89.19.18,1.51,1.79.36.35,1.86,1.45.24.24,1.51,1.79.36.35,1.86,1.45.24.24,1.51,1.79.36.34,1.85,1.46.25.23,1.57,1.81.49.28,5.7,1.59.12.11c.31,1.49.88,2.76,2.74,2.88l.1.06,1.23,3.39c-14.14-4.48-24.08,4.77-35.19,10.09-1.43.69-2.51,2-4.34,1.55-2.67-2-5.23-2.25-7.61.45a6.49,6.49,0,0,1-4.77,2.49c-4.44.07-9.21-2.38-13.11,1.64-1.17,1.45-2.52,2.59-4.62,2.32C46.82,445.45,43.67,446.06,41.84,443.39Z" transform="translate(-40.24 -76.51)"/><path class="cls-9" d="M254.57,542.85c10.41,6.26,19.68,14.25,32,17.63,5.64,1.55,9.83,1.13,14.6-1.92,11-7,22.3-13.55,26.94-26.49,1-2.7,2.82-3.88,5.88-4.05,4.07-.22,3.47,3,4.56,5,.58,8.07-2.7,14.14-10,18.21-9.42,5.25-16.06,14.1-28.68,15.3-19.7,1.87-33.69-5.68-45.37-19.61C254.5,545.57,254.54,544.21,254.57,542.85Z" transform="translate(-40.24 -76.51)"/><path class="cls-10" d="M497.6,169.78c5,1.46,9.51-1.86,13.8-1.53,4.79,2.07-9.73,3.55.55,6.35,2.48.67-1.5,3.77-3.35,4.82-9.54,5.44-19.22,10.66-28.85,16L470,193.43l-3-.53c-6.84-12.3-4.09-17.73,9.72-18.75A81.21,81.21,0,0,0,497.6,169.78Z" transform="translate(-40.24 -76.51)"/><path class="cls-6" d="M92.19,405c-14.79,10-28.28,21.55-41.57,33.3-2,1.75-3.81,3.56-6.77,3.37,7.39-13.22,14.27-26.83,27.29-36.07,3.44-2.44,7.33-4.35,9.66-8l4.92-.17a3.61,3.61,0,0,0,1.48.91l1.61,1.84.37.36L91,402l.24.24Z" transform="translate(-40.24 -76.51)"/><path class="cls-11" d="M85.72,397.45l-4.92.17c.13-6.26,5.44-10.62,6.42-16.72.51-3.15,4.53-2.83,6.55-1.27,9.06,7,15.5-3.53,23.66-3.11,2.75.14,1-3.66.84-5.68-1.15-16.19,4.87-30,15-42.52-1,9.66-7.86,17.25-10.06,26.58-1.11,4.72-2.23,9.31-1.74,14.09,1.26,12.29,1.34,12.28-11.27,12.11,2.58,4.12,4.79,7.83,7.21,11.4,1.34,2,2.83,3.8.26,5.74-2.4,1.81-4.46.42-6.08-1.22-2.45-2.47-5.88-4.32-6.25-8.27,1.37-.32,3.41.35,3.66-1.73a2.06,2.06,0,0,0-2.32-2.24c-1.94.39-1.18,2.39-1.59,3.7a2.93,2.93,0,0,1-1-.19C90.59,380.2,88.48,381.24,85.72,397.45Z" transform="translate(-40.24 -76.51)"/><path class="cls-11" d="M119.06,427.69l-1.23-3.39a60.17,60.17,0,0,0,12.82-21.07c2.33-6.35,4.64-6.3,9.77-3.54,7.14,3.85,14.85,5.83,23.15,4.32,12.89,5.56,27.6,1.15,40.52,6.86,1.74.77,2.82-1.07,3.1-2.81.38,5.34,6.46,8.15,6.49,13.62-13.94-11.29-30.33-11.88-47.59-12-8.19-.05-17.48-1.6-25.36-5.85-4-2.19-6.69-1.3-8.13,3.22-2.09,6.57-8.26,11.36-8.79,18.76C123.67,427.79,121.3,428.54,119.06,427.69Z" transform="translate(-40.24 -76.51)"/><path class="cls-5" d="M341.49,455c.26,5.68-5.15,6.68-8.36,9.56-17.58,15.81-37.61,24.44-62.28,21.36-7.43-.93-15.09-.11-22.65-.1a5.51,5.51,0,0,1-1.92-.38c.05-.37.09-.75.12-1.13l2-2.42h0c1.69.05,3.22-.21,4-1.91l-.18-.26c15,.16,30.1.5,45.15.37,5.07-.05,10.71-.11,13.29-5.92,7.85-6.71,19.32-9,24.71-18.71l.87-.1Z" transform="translate(-40.24 -76.51)"/><path class="cls-9" d="M341.31,526.37c-6.42-2.28-3.82-7.5-3.1-11.19,1.24-6.35,3.85-12.45,6-18.89,5.5,2.74,3.29,10.31,9.5,11.63,6.31,6.06,6.12,9.63-1.05,13.45C349,523.29,345.09,524.72,341.31,526.37Z" transform="translate(-40.24 -76.51)"/><path class="cls-9" d="M232.29,514.83c2.62,0,5.59-.77,7.82.14,17.9,7.3,36,5.45,54.3,1.92.8-.16,1.76.46,3.48,1-3,3.8-1.4,11-9.87,9-1.2-5.34-5.43-3.29-8.78-3.31-14.31,0-28.87,3-42.68-3.24l-.14-.1c0-1.21-.74-1.69-1.94-1.61a1.83,1.83,0,0,0-1.13-1C233,516.68,232.64,515.76,232.29,514.83Z" transform="translate(-40.24 -76.51)"/><path class="cls-11" d="M155.19,300.23c.1,5.82-7.06,8.84-6.18,14.95l.06.22-1.91,1.81-.1.1-1.88,1.8-.12.11c-.62.59-1.24,1.18-1.87,1.76l-.19.19c-1.58.75-1.91,2.11-1.88,3.64l-.06.15-2.1,1.57-5.07.89A65.21,65.21,0,0,1,155.19,300.23Z" transform="translate(-40.24 -76.51)"/><path class="cls-6" d="M231,208.55a9.48,9.48,0,0,1,0,11C228.56,215.92,228.61,212.24,231,208.55Z" transform="translate(-40.24 -76.51)"/><path class="cls-6" d="M54,443.91c3.9-4,8.67-1.57,13.11-1.64C63.15,445.57,58.48,443.84,54,443.91Z" transform="translate(-40.24 -76.51)"/><path class="cls-6" d="M41.84,443.39c1.83,2.67,5,2.06,7.58,2.84A6.59,6.59,0,0,1,41,447C39.71,446.22,40.11,444.32,41.84,443.39Z" transform="translate(-40.24 -76.51)"/><path class="cls-7" d="M351.82,296.2c-2.41-2.62-4.34-5.38-2.71-9.12C351,289.86,353.05,292.57,351.82,296.2Z" transform="translate(-40.24 -76.51)"/><path class="cls-2" d="M397.92,363.77l-7.3-2.72a9.4,9.4,0,0,0-.95-.22c.08-.22.16-.44.25-.65C392.65,361.25,397.3,358.33,397.92,363.77Z" transform="translate(-40.24 -76.51)"/><path class="cls-6" d="M231.13,223.88c2.12,2.38,2.13,4.78,0,7.17A6.22,6.22,0,0,1,231.13,223.88Z" transform="translate(-40.24 -76.51)"/><path class="cls-6" d="M71.92,439.78c2.38-2.7,4.94-2.43,7.61-.45C77.08,440.83,74.51,440.46,71.92,439.78Z" transform="translate(-40.24 -76.51)"/><path class="cls-12" d="M246.15,468.67l4.39,5.51C246.81,474,244,473.21,246.15,468.67Z" transform="translate(-40.24 -76.51)"/><path class="cls-11" d="M161.14,294.47c-.18,3.62-2.12,5.55-5.9,5.7A9.86,9.86,0,0,1,161.14,294.47Z" transform="translate(-40.24 -76.51)"/><path class="cls-7" d="M345,240.29c1-2.82,2.8-3.53,5.45-1.84l-1.36,2.25Z" transform="translate(-40.24 -76.51)"/><path class="cls-6" d="M342.69,183.51c-2.28-.52-3.84-1.32-1.54-3.64C341.66,181.08,342.17,182.3,342.69,183.51Z" transform="translate(-40.24 -76.51)"/><path class="cls-6" d="M352.13,191.12c-1.89,1.6-3.53,3.61-6.41,3.53l.18-3.88Z" transform="translate(-40.24 -76.51)"/><path class="cls-12" d="M241.52,457.74a7.19,7.19,0,0,1,2.59,5.17C240.76,462.35,240.36,460.41,241.52,457.74Z" transform="translate(-40.24 -76.51)"/><path class="cls-11" d="M165.62,290.5c-.61,2.22-1.63,4-4.44,3.94A5.3,5.3,0,0,1,165.62,290.5Z" transform="translate(-40.24 -76.51)"/><path class="cls-13" d="M252.4,480c-.8,1.7-2.33,2-4,1.91C249.16,480.15,250.66,479.83,252.4,480Z" transform="translate(-40.24 -76.51)"/><path class="cls-11" d="M215.38,423.92l0-.14Z" transform="translate(-40.24 -76.51)"/><path class="cls-12" d="M238.43,453.66l2.09-.67c-.29.72-.58,1.44-.88,2.15C239.23,454.65,238.83,454.15,238.43,453.66Z" transform="translate(-40.24 -76.51)"/><path class="cls-13" d="M248.39,481.87l-2,2.42A2.14,2.14,0,0,1,248.39,481.87Z" transform="translate(-40.24 -76.51)"/><path class="cls-13" d="M242.51,491.55c0,1.36-.86,1.75-2.07,1.76A1.79,1.79,0,0,1,242.51,491.55Z" transform="translate(-40.24 -76.51)"/><path class="cls-13" d="M240.39,493.35l-1.92,1.95A1.76,1.76,0,0,1,240.39,493.35Z" transform="translate(-40.24 -76.51)"/><path class="cls-13" d="M421.12,187.67a4.14,4.14,0,0,1,.37-1.44l1.15,1.52-.77.14Z" transform="translate(-40.24 -76.51)"/><path class="cls-13" d="M234.48,518.59c1.2-.08,1.9.4,1.94,1.61A1.59,1.59,0,0,1,234.48,518.59Z" transform="translate(-40.24 -76.51)"/><path class="cls-13" d="M448.92,200.56l-2-1.86A1.78,1.78,0,0,1,448.92,200.56Z" transform="translate(-40.24 -76.51)"/><path class="cls-7" d="M310.66,474.15c-18.71-.47-37.45,1.4-56.12-.91,1.55-4,5.21-4.39,8.85-4.66,22.62-1.63,45-4.12,65.28-15.18.76-.42,1.94-.11,2.93-.13l3.77,2.17C330,465.18,318.51,467.44,310.66,474.15Z" transform="translate(-40.24 -76.51)"/><path class="cls-7" d="M273.33,267l71.75-26.78c1.42,5.87.08,9.08-7,10.68a233.29,233.29,0,0,0-68.58,27.56c-3.15,1.87-6.46,3.15-10.25,1.92,3.29-2.37,6.47-4.91,9.9-7.07C271.63,271.73,275.81,271.51,273.33,267Z" transform="translate(-40.24 -76.51)"/><path class="cls-5" d="M348.68,410.08c5.79.31,11.31-.91,16.75-2.65,1.16,2,1.22,3.84-1.45,4.29-16,2.71-19.38,13.63-19,27l-3.36-1.79c-.47-1.64.17-3.82-2.35-4.46,1.13-7.3,4.46-13.86,7.35-20.57l0,.12Z" transform="translate(-40.24 -76.51)"/><path class="cls-6" d="M339.23,432.48c2.52.64,1.88,2.82,2.35,4.46-6.46,4.87-5.56,11.73-5.34,18.4l-.87.1-3.77-2.17C328.37,444.37,334.73,438.74,339.23,432.48Z" transform="translate(-40.24 -76.51)"/><path class="cls-12" d="M346.6,412l0-.12Z" transform="translate(-40.24 -76.51)"/><path class="cls-9" d="M149.06,374.18A201.38,201.38,0,0,0,200.58,371c3.12-.58,5.28-2.27,7.52-4.09.33,13.74-2.76,27.41-.91,41.18-.28,1.74-1.36,3.58-3.1,2.81-12.92-5.71-27.63-1.3-40.52-6.86C151.5,397.34,149.41,386.16,149.06,374.18Z" transform="translate(-40.24 -76.51)"/><path class="cls-11" d="M92.19,405l-1-2.79c2.41.13,3.66,1.36,3.77,3.68Z" transform="translate(-40.24 -76.51)"/><path class="cls-11" d="M114.87,421.25l-5.7-1.59C111.41,419.07,113.77,418.05,114.87,421.25Z" transform="translate(-40.24 -76.51)"/><path class="cls-5" d="M141.12,324.81c0-1.53.3-2.89,1.88-3.64C143.23,322.79,143,324.18,141.12,324.81Z" transform="translate(-40.24 -76.51)"/><path class="cls-11" d="M117.73,424.24c-1.86-.12-2.43-1.39-2.74-2.88C116.93,421.42,117.52,422.65,117.73,424.24Z" transform="translate(-40.24 -76.51)"/><path class="cls-11" d="M108.68,419.38l-1.57-1.81C108.37,417.58,108.91,418.17,108.68,419.38Z" transform="translate(-40.24 -76.51)"/><path class="cls-11" d="M106.86,417.34,105,415.88C106.25,415.63,106.86,416.13,106.86,417.34Z" transform="translate(-40.24 -76.51)"/><path class="cls-11" d="M104.65,415.54l-1.51-1.79C104.4,413.75,104.91,414.34,104.65,415.54Z" transform="translate(-40.24 -76.51)"/><path class="cls-11" d="M102.9,413.51,101,412.06C102.28,411.8,102.89,412.3,102.9,413.51Z" transform="translate(-40.24 -76.51)"/><path class="cls-11" d="M100.68,411.71l-1.51-1.79C100.43,409.93,101,410.51,100.68,411.71Z" transform="translate(-40.24 -76.51)"/><path class="cls-11" d="M98.93,409.68l-1.86-1.45C98.31,408,98.92,408.47,98.93,409.68Z" transform="translate(-40.24 -76.51)"/><path class="cls-11" d="M96.71,407.88l-1.51-1.79C96.46,406.1,97,406.68,96.71,407.88Z" transform="translate(-40.24 -76.51)"/><path class="cls-11" d="M91,402l-1.82-1.43C90.45,400.25,91,400.75,91,402Z" transform="translate(-40.24 -76.51)"/><path class="cls-11" d="M88.81,400.2l-1.61-1.84C88.45,398.39,89,399,88.81,400.2Z" transform="translate(-40.24 -76.51)"/><path class="cls-5" d="M139,326.53l2.1-1.57Z" transform="translate(-40.24 -76.51)"/><path class="cls-5" d="M143.19,321c.63-.58,1.25-1.17,1.87-1.76Z" transform="translate(-40.24 -76.51)"/><path class="cls-5" d="M145.18,319.11l1.88-1.8Z" transform="translate(-40.24 -76.51)"/><path class="cls-5" d="M147.16,317.21l1.91-1.81Z" transform="translate(-40.24 -76.51)"/><path class="cls-5" d="M345.46,451.16c.18-2.49.35-5,.53-7.47C346.87,446.25,352.69,449.14,345.46,451.16Z" transform="translate(-40.24 -76.51)"/><path class="cls-5" d="M341.53,455a6.65,6.65,0,0,1,4-3.82C345.71,453.93,344.37,455.18,341.53,455Z" transform="translate(-40.24 -76.51)"/><path class="cls-6" d="M238.6,239.14c-1.58,2-3.7,2.17-6,1.71C234.09,238.65,236.38,239,238.6,239.14Z" transform="translate(-40.24 -76.51)"/></svg>